<?xml version="1.0" encoding="utf-8"?>
<!-- Generator: Adobe Illustrator 28.0.0, SVG Export Plug-In . SVG Version: 6.00 Build 0)  -->
<svg version="1.1" id="Layer_1" xmlns="http://www.w3.org/2000/svg" xmlns:xlink="http://www.w3.org/1999/xlink" x="0px" y="0px"
	 viewBox="0 0 2392.6 2392.6" style="enable-background:new 0 0 2392.6 2392.6;" xml:space="preserve">
<style type="text/css">
	.st0{fill-rule:evenodd;clip-rule:evenodd;}
	.st1{fill-rule:evenodd;clip-rule:evenodd;fill:url(#SVGID_1_);}
	.st2{fill-rule:evenodd;clip-rule:evenodd;fill:url(#SVGID_00000081628567808142931940000015475637231025054089_);}
	.st3{fill-rule:evenodd;clip-rule:evenodd;fill:url(#SVGID_00000134245725650305623180000007678364059240188586_);}
	.st4{display:none;fill-rule:evenodd;clip-rule:evenodd;}
	.st5{fill-rule:evenodd;clip-rule:evenodd;fill:url(#SVGID_00000047750748120984864170000008025544409382996906_);}
	.st6{fill-rule:evenodd;clip-rule:evenodd;fill:url(#SVGID_00000009585519481440418590000004959927335601847466_);}
	.st7{fill-rule:evenodd;clip-rule:evenodd;fill:url(#SVGID_00000058584990762008824210000012784452125827220131_);}
	.st8{fill-rule:evenodd;clip-rule:evenodd;fill:none;}
	.st9{fill:#FFFFFF;}
	.st10{font-family:'Gotham-Book';}
	.st11{font-size:550px;}
	.st12{font-family:'GothamNarrow-Black';}
	.st13{fill-rule:evenodd;clip-rule:evenodd;fill:url(#SVGID_00000174591778631177860390000016499344282295833492_);}
</style>
<font horiz-adv-x="1000">
<!-- Copyright (C) 2001, 2008 Hoefler &amp; Frere-Jones. http://www.typography.com -->
<!-- Copyright: Copyright 2023 Adobe System Incorporated. All rights reserved. -->
<font-face font-family="GothamNarrow-Black" units-per-em="1000" underline-position="-100" underline-thickness="50"/>
<missing-glyph horiz-adv-x="500" d="M0,-200l500,0l0,1000l-500,0M71,750l358,0l-179,-390M50,-76l0,752l172,-376M450,676l0,-752l-172,376M250,240l179,-390l-358,0z"/>
<glyph unicode="A" horiz-adv-x="682" d="M4,0l185,0l40,126l220,0l41,-126l189,0l-247,704l-182,0M274,270l65,205l65,-205z"/>
<glyph unicode="B" horiz-adv-x="624" d="M52,0l291,0C508,0 602,74 602,194l0,4C602,290 549,336 474,364C532,390 578,438 578,518l0,4C578,572 561,610 532,638C491,680 426,700 342,700l-290,0M400,484C400,441 368,419 313,419l-86,0l0,131l89,0C370,550 400,527 400,485M422,219l0,-1C422,175 389,150 333,150l-106,0l0,137l105,0C391,287 422,260 422,219z"/>
<glyph unicode="C" horiz-adv-x="617" d="M350,-12C467,-12 545,38 602,108l-114,116C456,187 420,155 360,155C279,155 217,224 217,349l0,4C217,472 278,545 360,545C415,545 453,515 483,479l116,123C542,669 467,712 357,712C173,712 32,571 32,355l0,-12C32,125 171,-12 350,-12z"/>
<glyph unicode="D" horiz-adv-x="667" d="M52,0l227,0C506,0 635,140 635,346l0,12C635,564 507,700 282,700l-230,0M284,539C384,539 451,480 451,354l0,-9C451,220 384,161 284,161l-52,0l0,378z"/>
<glyph unicode="E" horiz-adv-x="570" d="M52,0l486,0l0,158l-308,0l0,120l274,0l0,149l-274,0l0,115l304,0l0,158l-482,0z"/>
<glyph unicode="&#x20AC;" horiz-adv-x="594" d="M580,623C528,680 464,713 378,713C237,713 136,622 104,482l-74,0l0,-104l60,0l0,-19l0,-20l0,-13l-60,0l0,-104l71,0C131,76 232,-13 374,-13C462,-13 527,22 581,83l-97,116C459,170 429,146 384,146C337,146 298,171 280,224l144,0l0,102l-160,0l0,16l0,17l0,19l160,0l0,101l-142,0C301,529 337,554 382,554C427,554 455,531 479,504z"/>
<glyph unicode="F" horiz-adv-x="551" d="M52,0l180,0l0,259l266,0l0,155l-266,0l0,124l296,0l0,162l-476,0z"/>
<glyph unicode="G" horiz-adv-x="664" d="M368,-12C474,-12 559,26 625,75l0,334l-280,0l0,-139l111,0l0,-104C436,153 410,145 375,145C285,145 216,216 216,344l0,10C216,470 284,548 373,548C433,548 473,523 510,490l100,137C542,682 469,712 369,712C176,712 32,566 32,356l0,-14C32,123 177,-12 368,-12z"/>
<glyph unicode="H" horiz-adv-x="663" d="M52,0l180,0l0,270l199,0l0,-270l181,0l0,700l-181,0l0,-266l-199,0l0,266l-180,0z"/>
<glyph unicode="I" horiz-adv-x="291" d="M55,0l180,0l0,700l-180,0z"/>
<glyph unicode="J" horiz-adv-x="486" d="M207,-11C278,-11 337,11 377,52C420,94 441,153 441,234l0,466l-179,0l0,-460C262,181 234,152 192,152C156,152 129,172 103,203l-101,-122C45,29 111,-11 207,-11z"/>
<glyph unicode="K" horiz-adv-x="636" d="M52,0l180,0l0,182l56,73l141,-255l210,0l-224,402l217,298l-207,0l-193,-277l0,277l-180,0z"/>
<glyph unicode="L" horiz-adv-x="526" d="M52,0l455,0l0,162l-275,0l0,538l-180,0z"/>
<glyph unicode="M" horiz-adv-x="758" d="M52,0l175,0l0,392l149,-258l3,0l149,260l0,-394l178,0l0,700l-186,0l-141,-258l-142,258l-185,0z"/>
<glyph unicode="N" horiz-adv-x="682" d="M52,0l177,0l0,367l242,-367l160,0l0,700l-177,0l0,-352l-233,352l-169,0z"/>
<glyph unicode="O" horiz-adv-x="713" d="M356,-13C544,-13 681,134 681,343l0,15C681,568 546,713 357,713C169,713 32,566 32,357l0,-15C32,132 167,-13 356,-13M357,150C274,150 216,224 216,345l0,11C216,477 273,550 356,550C439,550 497,476 497,355l0,-11C497,223 441,150 357,150z"/>
<glyph unicode="P" horiz-adv-x="591" d="M52,0l179,0l0,203l69,0C453,205 575,285 575,453l0,4C575,614 467,700 302,700l-250,0M231,350l0,196l62,0C358,546 395,513 395,449l0,-3C395,387 357,350 294,350z"/>
<glyph unicode="Q" horiz-adv-x="715" d="M695,77l-67,64C661,197 681,266 681,343l0,15C681,568 546,713 357,713C169,713 32,566 32,357l0,-15C32,133 168,-13 356,-13C424,-13 486,7 537,42l61,-61M359,146C274,146 216,219 216,343l0,12C216,476 273,550 356,550C440,550 498,476 498,354l0,-12C498,317 495,294 491,274l-62,60l-97,-96l84,-79C399,150 380,146 359,146z"/>
<glyph unicode="R" horiz-adv-x="627" d="M52,0l179,0l0,217l64,0l119,-217l203,0l-144,254C547,291 598,356 598,460l0,5C598,536 576,590 537,629C492,675 421,700 327,700l-275,0M231,360l0,183l88,0C379,543 417,513 417,453l0,-2C417,395 381,360 320,360z"/>
<glyph unicode="S" horiz-adv-x="566" d="M286,-10C436,-10 541,74 541,210l0,2C541,331 458,385 325,428C236,461 214,477 214,508l0,1C214,535 237,555 278,555C335,555 393,528 441,491l91,134C459,684 376,710 282,710C129,710 32,621 32,494l0,-3C32,364 125,316 257,271C339,242 360,225 360,197l0,-1C360,166 335,145 287,145C219,145 154,177 97,224l-96,-131C83,22 182,-10 286,-10z"/>
<glyph unicode="T" horiz-adv-x="566" d="M193,0l180,0l0,538l173,0l0,162l-526,0l0,-162l173,0z"/>
<glyph unicode="U" horiz-adv-x="659" d="M328,-12C499,-12 614,77 614,280l0,420l-182,0l0,-428C432,189 392,151 329,151C267,151 226,191 226,275l0,425l-181,0l0,-423C45,78 157,-12 328,-12z"/>
<glyph unicode="V" horiz-adv-x="653" d="M240,-4l173,0l236,704l-192,0l-128,-436l-129,436l-196,0z"/>
<glyph unicode="W" horiz-adv-x="967" d="M205,-4l165,0l113,387l113,-387l165,0l195,704l-186,0l-98,-405l-110,407l-155,0l-109,-407l-98,405l-190,0z"/>
<glyph unicode="X" horiz-adv-x="632" d="M419,700l-102,-203l-99,203l-201,0l194,-344l-203,-356l197,0l109,217l108,-217l202,0l-204,358l196,342z"/>
<glyph unicode="Y" horiz-adv-x="626" d="M223,0l180,0l0,264l225,436l-196,0l-118,-253l-117,253l-199,0l225,-438z"/>
<glyph unicode="Z" horiz-adv-x="593" d="M34,0l527,0l0,157l-292,0l292,408l0,135l-518,0l0,-157l282,0l-291,-408z"/>
<glyph unicode="a" horiz-adv-x="529" d="M178,-11C240,-11 284,14 316,55l0,-55l174,0l0,324C490,397 473,451 435,489C396,528 336,549 252,549C173,549 108,531 55,507l40,-130C129,391 171,407 223,407C285,407 317,378 317,323l0,-13C289,322 248,331 205,331C95,331 20,276 20,160l0,-7C20,48 89,-11 178,-11M243,104C210,105 187,127 187,165l0,4C187,210 213,236 257,236C280,236 303,230 318,223l0,-40C318,134 286,104 243,104z"/>
<glyph unicode="&amp;" horiz-adv-x="626" d="M490,-14l123,84l-81,91C562,206 588,259 610,319l-122,51C471,332 455,297 438,268l-71,85C443,394 492,453 492,536l0,3C492,639 418,713 300,713C176,713 98,630 98,532l0,-3C98,481 113,439 148,387C61,341 18,276 18,191l0,-3C18,63 117,-11 248,-11C320,-11 379,12 431,52M285,441C261,473 250,497 250,526l0,1C250,561 270,586 300,586C329,586 348,564 348,531l0,-1C348,494 328,465 285,441M271,126C226,126 195,155 195,199l0,2C195,229 208,258 238,280l105,-127C321,136 296,126 271,126z"/>
<glyph unicode="^" horiz-adv-x="500" d="M64,493l118,0l67,107l67,-107l120,0l-124,205l-125,0z"/>
<glyph unicode="~" horiz-adv-x="460" d="M312,236C371,236 405,281 422,373l-83,22C328,365 318,351 293,351C278,351 260,358 234,368C209,378 179,389 149,389C90,389 55,344 38,251l84,-22C134,260 143,274 167,274C182,274 201,266 226,256C252,246 281,236 312,236z"/>
<glyph unicode="*" horiz-adv-x="391" d="M144,355l103,0l-25,127l94,-85l53,90l-121,41l121,41l-53,91l-94,-85l25,127l-103,0l25,-127l-94,85l-52,-91l120,-41l-120,-41l52,-90l94,85z"/>
<glyph unicode="@" horiz-adv-x="859" d="M430,-154C523,-154 595,-131 666,-88l-20,33C579,-94 515,-114 432,-114C224,-114 80,39 81,254C81,479 231,672 445,672C643,672 778,522 778,351C778,210 726,118 665,118C632,118 613,139 613,170C613,186 614,202 617,218l47,268l-140,22l-11,-60C492,487 456,520 398,520C290,520 197,390 197,239C197,126 264,60 351,60C408,60 451,91 484,136C503,93 544,57 620,57C730,57 821,168 821,350C821,542 664,713 447,713C208,713 38,501 38,256C38,16 204,-154 430,-154M400,179C366,179 342,202 342,248C342,289 358,349 383,375C396,388 413,397 432,397C464,397 489,373 489,329C489,288 473,226 448,201C435,188 418,179 400,179z"/>
<glyph unicode="b" horiz-adv-x="592" d="M363,-11C472,-11 565,79 565,263l0,18C565,462 471,552 363,552C291,552 251,515 219,472l0,252l-176,0l0,-724l176,0l0,65C250,25 291,-11 363,-11M304,139C253,139 216,189 216,264l0,13C216,352 253,402 304,402C355,402 392,352 392,277l0,-13C392,189 355,139 304,139z"/>
<glyph unicode="\" horiz-adv-x="467" d="M359,-119l139,0l-377,908l-140,0z"/>
<glyph unicode="&#x2022;" horiz-adv-x="458" d="M229,183C315,183 383,252 383,349l0,7C383,453 315,522 229,522C143,522 75,453 75,356l0,-7C75,252 143,183 229,183z"/>
<glyph unicode="c" horiz-adv-x="487" d="M277,-13C368,-13 431,25 477,84l-100,103C353,160 329,141 292,141C235,141 198,192 198,270l0,3C198,346 235,398 290,398C327,398 351,380 373,352l103,109C432,517 370,552 284,552C132,552 26,433 26,273l0,-11C26,103 129,-13 277,-13z"/>
<glyph unicode=":" horiz-adv-x="271" d="M43,357l185,0l0,184l-185,0M43,0l185,0l0,184l-185,0z"/>
<glyph unicode="," horiz-adv-x="263" d="M33,-160C149,-152 224,-100 224,35l0,151l-185,0l0,-185l76,0C117,-47 86,-81 18,-91z"/>
<glyph unicode="&#xA9;" horiz-adv-x="732" d="M366,-13C550,-13 690,142 690,345l0,11C690,559 551,713 367,713C182,713 42,558 42,355l0,-11C42,141 181,-13 366,-13M366,26C201,26 83,163 83,343l0,12C83,536 201,674 367,674C532,674 649,537 649,357l0,-12C649,164 531,26 366,26M375,152C439,152 482,178 514,218l-65,66C430,263 411,247 380,247C336,247 301,284 301,352l0,4C301,422 335,460 379,460C409,460 430,445 447,425l65,70C480,532 440,555 378,555C273,555 196,476 196,357l0,-8C196,229 271,152 375,152z"/>
<glyph unicode="d" horiz-adv-x="592" d="M230,-11C301,-11 341,26 374,69l0,-69l175,0l0,724l-175,0l0,-248C342,516 301,552 229,552C121,552 27,462 27,278l0,-18C27,79 121,-11 230,-11M289,139C237,139 201,189 201,264l0,13C201,352 237,402 289,402C339,402 376,352 376,277l0,-13C376,189 339,139 289,139z"/>
<glyph unicode="$" horiz-adv-x="575" d="M538,622C485,662 422,689 350,698l0,65l-104,0l0,-64C121,683 46,605 46,495l0,-3C46,375 123,321 272,271C357,246 382,228 382,197l0,-2C382,164 358,144 304,144l-5,0C232,145 166,173 99,224l-85,-128C78,43 162,10 245,1l0,-102l104,0l0,102C468,18 549,93 549,206l0,2C549,323 475,380 329,428C238,457 214,473 214,506l0,1C214,534 235,557 286,557l6,0C347,557 410,529 457,493z"/>
<glyph unicode="e" horiz-adv-x="535" d="M287,-12C377,-12 443,23 494,77l-84,100C377,146 342,126 299,126C247,126 208,156 195,214l314,0C510,228 510,257 510,264C510,429 430,553 270,553C127,553 25,437 25,274l0,-11C25,94 134,-12 287,-12M193,313C200,382 228,417 270,417C313,417 341,380 346,313z"/>
<glyph unicode="8" horiz-adv-x="565" d="M282,-12C434,-12 541,68 541,192l0,4C541,282 496,331 433,363C483,394 522,443 522,516l0,3C522,631 425,712 283,712C140,712 43,630 43,519l0,-3C43,443 82,394 132,363C66,331 24,279 24,195l0,-4C24,69 130,-12 282,-12M283,417C238,417 208,449 208,498l0,1C208,546 238,577 283,577C327,577 357,545 357,499l0,-1C357,449 327,417 283,417M283,125C229,125 197,159 197,209l0,2C197,263 232,295 283,295C333,295 369,263 369,211l0,-2C369,159 336,125 283,125z"/>
<glyph unicode="=" horiz-adv-x="568" d="M51,399l466,0l0,156l-466,0M51,149l466,0l0,156l-466,0z"/>
<glyph unicode="!" horiz-adv-x="295" d="M102,227l91,0l57,410l0,63l-205,0l0,-63M54,0l187,0l0,167l-187,0z"/>
<glyph unicode="f" horiz-adv-x="356" d="M71,0l176,0l0,400l102,0l0,137l-105,0l0,12C244,582 262,597 294,597C315,597 332,594 349,590l0,127C324,724 293,729 245,729C186,729 144,715 114,686C85,656 71,613 71,555l0,-16l-53,0l0,-139l53,0z"/>
<glyph unicode="5" horiz-adv-x="550" d="M256,-13C409,-13 520,78 520,234l0,3C520,389 415,455 301,455C264,455 236,448 210,438l6,107l275,0l0,155l-415,0l-20,-355l101,-57C184,304 213,316 250,316C305,316 344,285 344,233l0,-2C344,179 309,146 250,146C199,146 154,169 105,208l-89,-132C80,21 158,-13 256,-13z"/>
<glyph unicode="4" horiz-adv-x="607" d="M333,0l172,0l0,131l79,0l0,140l-79,0l0,433l-180,0l-312,-446l22,-127l298,0M192,270l142,207l0,-207z"/>
<glyph unicode="g" horiz-adv-x="592" d="M272,-153C371,-153 440,-130 486,-85C529,-42 549,21 549,110l0,431l-175,0l0,-64C339,519 297,552 226,552C120,552 27,469 27,301l0,-8C27,128 119,45 230,45C299,45 343,80 376,123l0,-27C376,19 335,-20 254,-20C193,-20 136,-3 91,22l-49,-126C111,-136 184,-153 272,-153M288,186C236,186 201,229 201,296l0,3C201,365 235,410 288,410C341,410 376,366 376,299l0,-3C376,230 341,186 288,186z"/>
<glyph unicode="&gt;" horiz-adv-x="568" d="M66,76l450,195l0,161l-450,196l0,-172l288,-105l-288,-105z"/>
<glyph unicode="h" horiz-adv-x="561" d="M43,0l176,0l0,319C219,369 246,396 284,396C321,396 346,369 346,319l0,-319l176,0l0,373C522,483 463,552 362,552C293,552 249,513 219,470l0,254l-176,0z"/>
<glyph unicode="-" horiz-adv-x="382" d="M36,233l310,0l0,159l-310,0z"/>
<glyph unicode="i" horiz-adv-x="269" d="M44,587l181,0l0,137l-181,0M47,0l175,0l0,541l-175,0z"/>
<glyph unicode="j" horiz-adv-x="271" d="M44,587l182,0l0,137l-182,0M46,-154C159,-154 223,-107 223,20l0,521l-176,0l0,-515C47,-15 29,-31 -4,-31C-11,-31 -19,-30 -26,-29l0,-119C-4,-151 17,-154 46,-154z"/>
<glyph unicode="k" horiz-adv-x="535" d="M43,0l176,0l0,134l39,53l86,-187l193,0l-158,325l155,216l-194,0l-121,-181l0,364l-176,0z"/>
<glyph unicode="l" horiz-adv-x="269" d="M47,0l175,0l0,724l-175,0z"/>
<glyph unicode="&lt;" horiz-adv-x="568" d="M502,76l0,171l-287,105l287,106l0,170l-450,-196l0,-161z"/>
<glyph unicode="m" horiz-adv-x="856" d="M43,0l175,0l0,320C218,369 245,396 281,396C318,396 342,369 342,320l0,-320l175,0l0,320C517,369 543,396 580,396C617,396 640,369 640,320l0,-320l176,0l0,374C816,487 754,552 654,552C585,552 536,519 498,471C472,522 426,552 361,552C293,552 249,514 218,470l0,71l-175,0z"/>
<glyph unicode="n" horiz-adv-x="561" d="M43,0l176,0l0,319C219,369 246,396 284,396C321,396 346,369 346,319l0,-319l176,0l0,373C522,483 463,552 362,552C293,552 249,512 219,469l0,72l-176,0z"/>
<glyph unicode="9" horiz-adv-x="585" d="M251,140C202,140 161,159 122,188l-75,-133C110,11 173,-13 255,-13C440,-13 552,121 552,368l0,3C552,510 520,592 469,643C423,689 368,713 284,713C143,713 34,616 34,460l0,-4C34,310 129,236 243,236C292,236 335,251 373,282C368,215 339,140 251,140M291,369C239,369 207,408 207,468l0,2C207,530 237,570 289,570C343,570 374,529 374,469l0,-2C374,409 344,369 291,369z"/>
<glyph unicode="#" horiz-adv-x="614" d="M561,291l-80,0l18,122l91,0l0,152l-68,0l20,135l-130,0l-20,-135l-107,0l20,135l-129,0l-20,-135l-103,0l0,-152l80,0l-18,-122l-91,0l0,-152l68,0l-21,-139l130,0l20,139l107,0l-20,-139l129,0l21,139l103,0M259,418l115,0l-20,-132l-115,0z"/>
<glyph unicode="o" horiz-adv-x="576" d="M287,-13C441,-13 551,104 551,263l0,15C551,438 441,553 289,553C136,553 26,436 26,277l0,-15C26,102 135,-13 287,-13M289,138C234,138 198,191 198,266l0,9C198,350 231,402 288,402C343,402 379,349 379,274l0,-9C379,190 345,138 289,138z"/>
<glyph unicode="1" horiz-adv-x="375" d="M139,0l178,0l0,704l-130,0l-177,-51l25,-149l104,26z"/>
<glyph unicode="p" horiz-adv-x="592" d="M43,-151l176,0l0,216C250,25 291,-11 363,-11C472,-11 565,79 565,263l0,18C565,462 471,552 363,552C291,552 251,515 219,472l0,69l-176,0M304,139C253,139 216,189 216,264l0,13C216,352 253,402 304,402C355,402 392,352 392,277l0,-13C392,189 355,139 304,139z"/>
<glyph unicode="(" horiz-adv-x="397" d="M309,-140l67,111C253,50 210,152 210,286l0,1C210,422 253,523 376,603l-67,111C137,632 39,500 39,291l0,-8C39,74 137,-58 309,-140z"/>
<glyph unicode=")" horiz-adv-x="397" d="M88,-140C259,-58 358,74 358,283l0,8C358,500 259,632 88,714l-67,-111C144,523 187,422 187,287l0,-1C187,152 144,50 21,-29z"/>
<glyph unicode="%" horiz-adv-x="798" d="M190,328C286,328 351,406 351,515l0,7C351,631 287,709 191,709C95,709 30,631 30,522l0,-8C30,406 95,328 190,328M190,606C220,606 239,574 239,521l0,-6C239,462 221,430 191,430C162,430 142,463 142,515l0,7C142,574 160,606 190,606M359,371l-256,-371l118,0l217,326l257,374l-118,0M607,-9C703,-9 768,70 768,178l0,8C768,294 704,372 608,372C511,372 447,294 447,185l0,-7C447,69 512,-9 607,-9M608,94C578,94 558,126 558,179l0,6C558,238 576,270 607,270C637,270 656,237 656,185l0,-7C656,126 637,94 608,94z"/>
<glyph unicode="." horiz-adv-x="263" d="M39,0l185,0l0,184l-185,0z"/>
<glyph unicode="+" horiz-adv-x="568" d="M204,113l161,0l0,161l157,0l0,156l-157,0l0,160l-161,0l0,-160l-158,0l0,-156l158,0z"/>
<glyph unicode="q" horiz-adv-x="592" d="M374,-151l175,0l0,692l-175,0l0,-65C342,516 301,552 229,552C121,552 27,462 27,278l0,-18C27,79 121,-11 230,-11C301,-11 341,26 374,69M289,139C237,139 201,189 201,264l0,13C201,352 237,402 289,402C339,402 376,352 376,277l0,-13C376,189 339,139 289,139z"/>
<glyph unicode="?" horiz-adv-x="482" d="M163,227l113,0l13,78C388,333 463,388 463,506l0,1C463,630 370,709 231,709C135,709 62,672 4,620l84,-130C129,525 174,548 217,548C261,548 287,526 287,492l0,-2C287,447 248,417 147,405l-6,-7M124,0l187,0l0,167l-187,0z"/>
<glyph unicode="&quot;" horiz-adv-x="481" d="M264,354l86,0l113,340l0,6l-184,0M34,354l86,0l113,340l0,6l-184,0z"/>
<glyph unicode="&#x201C;" horiz-adv-x="504" d="M280,359l182,0l0,185l-74,0C386,592 415,627 483,637l-15,68C352,697 280,643 280,510M36,359l182,0l0,185l-74,0C142,592 171,627 239,637l-15,68C108,697 36,643 36,510z"/>
<glyph unicode="&#x201D;" horiz-adv-x="504" d="M280,355C396,362 468,416 468,549l0,151l-182,0l0,-184l75,0C362,467 333,433 266,423M36,355C152,362 224,416 224,549l0,151l-182,0l0,-184l75,0C119,467 89,433 22,423z"/>
<glyph unicode="&#x2018;" horiz-adv-x="264" d="M36,359l185,0l0,185l-76,0C143,592 174,627 242,637l-15,68C111,697 36,645 36,510z"/>
<glyph unicode="&#x2019;" horiz-adv-x="264" d="M36,355C153,362 227,414 227,549l0,151l-185,0l0,-184l77,0C120,467 89,433 22,423z"/>
<glyph unicode="'" horiz-adv-x="253" d="M34,354l88,0l114,340l0,6l-187,0z"/>
<glyph unicode="r" horiz-adv-x="377" d="M43,0l176,0l0,198C219,306 266,357 351,357l12,0l0,192C287,553 245,510 219,443l0,98l-176,0z"/>
<glyph unicode="&#xAE;" horiz-adv-x="342" d="M171,360C261,360 329,435 329,533l0,6C329,636 261,711 171,711C82,711 13,636 13,538l0,-6C13,435 81,360 171,360M171,379C90,379 33,446 33,532l0,6C33,624 91,692 171,692C252,692 309,625 309,539l0,-6C309,446 251,379 171,379M101,445l52,0l0,56l14,0l32,-56l59,0l-39,67C239,522 253,540 253,568l0,1C253,611 223,632 177,632l-76,0M153,543l0,45l22,0C191,588 199,580 199,566l0,-1C199,551 190,543 175,543z"/>
<glyph unicode="s" horiz-adv-x="453" d="M229,-11C351,-11 433,53 433,166l0,2C433,260 367,300 269,337C216,359 189,370 189,390l0,2C189,407 202,420 230,420C269,420 320,401 363,374l64,119C367,532 296,551 229,551C111,551 28,486 28,377l0,-2C28,277 98,239 193,204C247,183 272,173 272,152l0,-2C272,133 258,120 228,120C180,120 124,142 71,179l-66,-117C75,10 155,-11 229,-11z"/>
<glyph unicode=";" horiz-adv-x="271" d="M43,357l185,0l0,184l-185,0M37,-161C153,-154 228,-101 228,34l0,150l-185,0l0,-184l76,0C121,-48 90,-83 22,-93z"/>
<glyph unicode="7" horiz-adv-x="536" d="M58,0l193,0l260,569l0,131l-475,0l0,-159l280,0z"/>
<glyph unicode="6" horiz-adv-x="586" d="M301,-13C439,-13 552,82 552,237l0,3C552,386 452,457 344,457C293,457 251,441 212,412C217,481 247,560 335,560C384,560 421,540 453,516l75,135C468,692 409,713 331,713C141,713 34,572 34,332l0,-4C34,189 66,108 118,56C162,12 219,-13 301,-13M296,130C243,130 212,170 212,227l0,2C212,285 242,324 294,324C347,324 379,285 379,228l0,-2C379,169 349,130 296,130z"/>
<glyph unicode="/" horiz-adv-x="467" d="M-31,-119l140,0l377,908l-140,0z"/>
<glyph unicode=" " horiz-adv-x="238"/>
<glyph unicode="&#xA3;" horiz-adv-x="558" d="M36,0l495,0l0,149l-247,0l0,116l181,0l0,136l-181,0l0,60C284,490 290,514 305,528C318,541 335,547 354,547C389,547 416,528 441,501l97,128C491,678 426,712 338,712C268,712 210,691 168,649C126,607 104,544 104,463l0,-62l-67,0l0,-136l67,0l0,-125l-68,-28z"/>
<glyph unicode="t" horiz-adv-x="377" d="M232,-10C279,-10 320,1 351,18l0,138C331,147 311,142 291,142C261,142 246,155 246,187l0,213l106,0l0,141l-106,0l0,135l-175,0l0,-135l-54,0l0,-141l54,0l0,-253C71,32 134,-10 232,-10z"/>
<glyph unicode="3" horiz-adv-x="542" d="M262,-13C408,-13 513,75 513,217l0,2C513,336 438,392 346,414l156,149l0,137l-449,0l0,-153l234,0l-147,-146l19,-101l52,0C294,300 337,271 337,222l0,-2C337,175 303,146 250,146C192,146 144,174 108,209l-96,-126C72,24 155,-13 262,-13z"/>
<glyph unicode="&#x2122;" horiz-adv-x="616" d="M291,390l80,0l0,176l65,-115l3,0l66,115l0,-176l80,0l0,310l-84,0l-63,-112l-62,112l-85,0M92,390l82,0l0,236l76,0l0,74l-235,0l0,-74l77,0z"/>
<glyph unicode="2" horiz-adv-x="547" d="M30,0l485,0l0,154l-255,0l117,110C469,349 513,406 513,500l0,2C513,629 417,712 281,712C172,712 98,668 27,585l107,-115C184,523 219,550 262,550C305,550 333,523 333,483C333,443 311,412 254,355l-224,-214z"/>
<glyph unicode="u" horiz-adv-x="561" d="M199,-11C268,-11 312,28 342,71l0,-71l176,0l0,541l-176,0l0,-319C342,172 315,145 277,145C240,145 215,172 215,222l0,319l-176,0l0,-373C39,58 98,-11 199,-11z"/>
<glyph unicode="_" horiz-adv-x="563" d="M-2,-157l567,0l0,114l-567,0z"/>
<glyph unicode="&#xA0;" horiz-adv-x="238"/>
<glyph unicode="v" horiz-adv-x="549" d="M192,-4l165,0l185,545l-180,0l-86,-317l-86,317l-183,0z"/>
<glyph unicode="w" horiz-adv-x="763" d="M153,-4l153,0l75,274l74,-274l154,0l145,545l-171,0l-61,-275l-69,277l-143,0l-68,-276l-60,274l-172,0z"/>
<glyph unicode="x" horiz-adv-x="525" d="M196,541l-187,0l154,-268l-157,-273l183,0l72,144l71,-144l187,0l-158,274l154,267l-183,0l-69,-138z"/>
<glyph unicode="y" horiz-adv-x="549" d="M279,222l-89,319l-182,0l183,-533C182,-8 169,-13 152,-13C135,-13 109,-5 84,9l-45,-125C82,-140 130,-154 182,-154C282,-154 330,-106 370,15l171,526l-178,0z"/>
<glyph unicode="z" horiz-adv-x="486" d="M26,0l437,0l0,142l-216,0l216,281l0,118l-430,0l0,-142l208,0l-215,-281z"/>
<glyph unicode="0" horiz-adv-x="640" d="M319,-13C496,-13 606,135 606,343l0,15C606,567 497,713 321,713C144,713 34,565 34,357l0,-15C34,133 142,-13 319,-13M321,148C257,148 215,216 215,344l0,14C215,486 256,552 319,552C382,552 425,484 425,356l0,-14C425,215 384,148 321,148z"/>
</font>

	<font horiz-adv-x="1000">
<!-- Copyright (C) 2001, 2008 Hoefler &amp; Frere-Jones. http://www.typography.com -->
<!-- Copyright: Copyright 2023 Adobe System Incorporated. All rights reserved. -->
<font-face font-family="Gotham-Book" units-per-em="1000" underline-position="-100" underline-thickness="50"/>
<missing-glyph horiz-adv-x="500" d="M0,-200l500,0l0,1000l-500,0M71,750l358,0l-179,-390M50,-76l0,752l172,-376M450,676l0,-752l-172,376M250,240l179,-390l-358,0z"/>
<glyph unicode="A" horiz-adv-x="790" d="M39,0l81,0l83,185l381,0l82,-185l85,0l-319,705l-74,0M234,257l160,356l159,-356z"/>
<glyph unicode="B" horiz-adv-x="722" d="M99,0l311,0C563,0 664,71 664,191l0,2C664,289 597,337 514,362C569,386 625,433 625,524l0,2C625,571 609,608 580,638C540,677 477,700 397,700l-298,0M545,513C545,431 479,388 384,388l-207,0l0,241l213,0C490,629 545,584 545,515M584,198l0,-2C584,118 518,71 412,71l-235,0l0,247l221,0C520,318 584,274 584,198z"/>
<glyph unicode="C" horiz-adv-x="738" d="M419,-12C546,-12 626,37 699,111l-52,51C580,98 517,61 421,61C267,61 150,188 150,350l0,2C150,513 266,639 421,639C516,639 582,599 641,543l54,58C625,667 549,712 422,712C216,712 68,548 68,350l0,-2C68,147 217,-12 419,-12z"/>
<glyph unicode="D" horiz-adv-x="782" d="M99,0l243,0C562,0 714,153 714,350l0,2C714,549 562,700 342,700l-243,0M342,627C519,627 632,505 632,350l0,-2C632,193 519,73 342,73l-164,0l0,554z"/>
<glyph unicode="E" horiz-adv-x="670" d="M99,0l511,0l0,72l-432,0l0,245l382,0l0,72l-382,0l0,239l427,0l0,72l-506,0z"/>
<glyph unicode="&#x20AC;" horiz-adv-x="720" d="M666,575C613,654 543,712 425,712C290,712 187,610 150,470l-94,0l0,-62l82,0C136,389 135,369 135,349C135,332 135,315 137,300l-81,0l0,-63l91,0C182,88 288,-12 430,-12C543,-12 613,51 668,134l-57,40C563,104 512,59 433,59C334,59 258,129 228,237l260,0l0,63l-272,0C214,316 214,333 214,351C214,370 215,389 217,408l271,0l0,62l-257,0C262,571 332,641 422,641C507,641 556,602 606,532z"/>
<glyph unicode="F" horiz-adv-x="656" d="M99,0l79,0l0,305l379,0l0,72l-379,0l0,250l424,0l0,73l-503,0z"/>
<glyph unicode="G" horiz-adv-x="784" d="M424,-12C542,-12 640,37 705,95l0,279l-289,0l0,-71l213,0l0,-174C581,90 507,59 427,59C257,59 150,183 150,350l0,2C150,508 261,639 416,639C515,639 575,606 629,559l51,60C610,678 537,712 419,712C209,712 68,542 68,350l0,-2C68,148 204,-12 424,-12z"/>
<glyph unicode="H" horiz-adv-x="760" d="M99,0l79,0l0,315l404,0l0,-315l79,0l0,700l-79,0l0,-311l-404,0l0,311l-79,0z"/>
<glyph unicode="I" horiz-adv-x="291" d="M106,0l79,0l0,700l-79,0z"/>
<glyph unicode="J" horiz-adv-x="553" d="M247,-10C309,-10 362,10 401,48C441,88 465,150 465,232l0,468l-80,0l0,-469C385,120 327,63 248,63C175,63 131,98 88,163l-57,-49C75,42 142,-10 247,-10z"/>
<glyph unicode="K" horiz-adv-x="719" d="M99,0l79,0l0,188l149,151l269,-339l99,0l-313,394l300,306l-102,0l-402,-418l0,418l-79,0z"/>
<glyph unicode="L" horiz-adv-x="619" d="M99,0l473,0l0,73l-394,0l0,627l-79,0z"/>
<glyph unicode="M" horiz-adv-x="868" d="M99,0l77,0l0,566l255,-374l4,0l255,375l0,-567l79,0l0,700l-80,0l-255,-382l-255,382l-80,0z"/>
<glyph unicode="N" horiz-adv-x="790" d="M99,0l77,0l0,574l452,-574l63,0l0,700l-77,0l0,-561l-441,561l-74,0z"/>
<glyph unicode="O" horiz-adv-x="850" d="M424,-12C637,-12 782,157 782,350l0,2C782,545 639,712 426,712C213,712 68,543 68,350l0,-2C68,155 211,-12 424,-12M426,61C266,61 150,191 150,350l0,2C150,511 264,639 424,639C584,639 700,509 700,350l0,-2C700,189 586,61 426,61z"/>
<glyph unicode="P" horiz-adv-x="668" d="M99,0l79,0l0,247l170,0C497,247 623,325 623,476l0,2C623,616 519,700 361,700l-262,0M178,319l0,308l177,0C468,627 543,575 543,475l0,-2C543,381 467,319 351,319z"/>
<glyph unicode="Q" horiz-adv-x="850" d="M791,38l-92,78C751,180 782,263 782,350l0,2C782,545 639,712 426,712C213,712 68,543 68,350l0,-2C68,155 211,-12 424,-12C510,-12 585,16 644,62l93,-83M426,61C266,61 150,191 150,350l0,2C150,511 264,639 424,639C584,639 700,509 700,350l0,-2C700,278 679,215 641,165l-131,119l-53,-59l131,-112C544,80 488,61 426,61z"/>
<glyph unicode="R" horiz-adv-x="723" d="M99,0l79,0l0,272l200,0l203,-272l97,0l-215,286C573,306 653,374 653,490l0,2C653,547 633,596 599,630C555,674 486,700 400,700l-301,0M178,343l0,284l216,0C507,627 573,575 573,489l0,-2C573,397 498,343 393,343z"/>
<glyph unicode="S" horiz-adv-x="640" d="M339,-10C478,-10 578,68 578,188l0,2C578,297 506,354 350,388C196,421 160,458 160,524l0,2C160,589 218,639 309,639C381,639 446,616 511,563l46,61C486,681 413,710 311,710C178,710 81,629 81,519l0,-2C81,402 155,350 316,315C463,284 498,247 498,182l0,-2C498,111 436,61 342,61C245,61 175,94 102,160l-49,-58C137,27 228,-10 339,-10z"/>
<glyph unicode="T" horiz-adv-x="648" d="M284,0l80,0l0,627l235,0l0,73l-550,0l0,-73l235,0z"/>
<glyph unicode="U" horiz-adv-x="759" d="M379,-11C554,-11 671,95 671,299l0,401l-79,0l0,-407C592,140 510,62 381,62C248,62 167,147 167,298l0,402l-79,0l0,-407C88,95 206,-11 379,-11z"/>
<glyph unicode="V" horiz-adv-x="750" d="M340,-5l70,0l301,705l-85,0l-250,-603l-249,603l-88,0z"/>
<glyph unicode="W" horiz-adv-x="1107" d="M295,-5l66,0l193,568l192,-568l67,0l250,705l-83,0l-200,-583l-192,585l-65,0l-192,-585l-200,583l-86,0z"/>
<glyph unicode="X" horiz-adv-x="725" d="M577,700l-214,-288l-214,288l-93,0l258,-343l-268,-357l91,0l224,302l224,-302l94,0l-268,357l258,343z"/>
<glyph unicode="Y" horiz-adv-x="716" d="M318,0l80,0l0,278l291,422l-92,0l-238,-350l-236,350l-96,0l291,-423z"/>
<glyph unicode="Z" horiz-adv-x="693" d="M67,0l561,0l0,71l-454,0l454,576l0,53l-546,0l0,-71l438,0l-453,-576z"/>
<glyph unicode="a" horiz-adv-x="579" d="M240,-11C331,-11 391,31 427,78l0,-78l74,0l0,316C501,382 483,432 448,467C410,505 354,524 281,524C206,524 150,507 93,481l23,-63C164,440 212,456 273,456C370,456 427,408 427,315l0,-18C381,310 334,319 268,319C137,319 47,261 47,152l0,-2C47,44 144,-11 240,-11M255,50C185,50 125,88 125,153l0,2C125,220 179,262 276,262C339,262 390,251 428,240l0,-50C428,108 350,50 255,50z"/>
<glyph unicode="&amp;" horiz-adv-x="696" d="M604,-14l60,46l-122,125C580,207 612,267 643,333l-65,30C553,305 525,252 494,207l-160,163C436,406 499,463 499,552l0,2C499,641 427,712 329,712C218,712 144,638 144,546l0,-2C144,489 166,446 214,390C107,348 45,281 45,188l0,-2C45,69 139,-10 265,-10C356,-10 430,30 494,99M290,415C237,472 220,503 220,544l0,2C220,603 263,647 326,647C383,647 425,606 425,550l0,-2C425,488 379,445 290,415M271,57C185,57 125,114 125,189l0,2C125,250 166,307 259,341l187,-193C395,92 337,57 271,57z"/>
<glyph unicode="^" horiz-adv-x="500" d="M65,493l66,0l118,154l118,-154l68,0l-155,209l-60,0z"/>
<glyph unicode="~" horiz-adv-x="474" d="M306,246C354,246 380,276 400,352l-46,13C339,329 328,315 302,315C285,315 262,325 240,335C215,346 191,356 168,356C120,356 93,326 73,250l47,-13C135,274 146,287 172,287C188,287 211,277 234,267C259,256 283,246 306,246z"/>
<glyph unicode="*" horiz-adv-x="430" d="M189,397l52,0l-10,125l103,-73l27,47l-116,53l116,54l-27,46l-103,-72l10,125l-52,0l10,-125l-103,72l-27,-46l116,-54l-116,-53l27,-47l103,73z"/>
<glyph unicode="@" horiz-adv-x="980" d="M499,-162C603,-162 687,-134 764,-87l-16,27C671,-105 599,-128 499,-128C259,-128 89,51 89,274C89,496 261,678 491,678C720,678 891,500 891,316C891,174 822,110 751,110C697,110 666,140 666,191C666,202 668,224 673,252l40,227l-67,9l-13,-69C609,461 565,502 487,502C374,502 256,395 256,253C256,143 337,71 435,71C510,71 561,109 600,155C619,105 667,71 740,71C832,71 927,146 927,316C927,525 736,712 491,712C246,712 53,513 53,274C53,35 243,-162 499,-162M450,133C379,133 328,179 328,258C328,311 350,358 382,391C413,422 452,440 492,440C562,440 614,386 614,313C614,263 592,215 558,181C529,152 490,133 450,133z"/>
<glyph unicode="b" horiz-adv-x="664" d="M361,-11C486,-11 608,89 608,258l0,2C608,430 485,528 361,528C266,528 205,475 163,413l0,317l-77,0l0,-730l77,0l0,99C203,41 265,-11 361,-11M347,58C251,58 160,138 160,258l0,2C160,378 251,459 347,459C445,459 529,381 529,259l0,-2C529,132 447,58 347,58z"/>
<glyph unicode="\" horiz-adv-x="508" d="M458,-128l71,0l-464,926l-71,0z"/>
<glyph unicode="&#x2022;" horiz-adv-x="478" d="M239,221C311,221 370,279 370,351l0,2C370,425 308,483 239,483C169,483 108,425 108,353l0,-2C108,279 167,221 239,221z"/>
<glyph unicode="c" horiz-adv-x="571" d="M319,-12C416,-12 478,30 530,88l-49,46C440,90 389,57 323,57C215,57 133,146 133,258l0,2C133,371 213,460 318,460C388,460 434,425 475,382l51,54C478,487 417,528 319,528C168,528 54,404 54,258l0,-2C54,111 168,-12 319,-12z"/>
<glyph unicode=":" horiz-adv-x="255" d="M82,412l92,0l0,105l-92,0M82,0l92,0l0,105l-92,0z"/>
<glyph unicode="," horiz-adv-x="245" d="M58,-122C134,-105 169,-66 169,15l0,90l-92,0l0,-105l36,0C117,-43 96,-69 46,-87z"/>
<glyph unicode="&#xA9;" horiz-adv-x="830" d="M414,-12C617,-12 777,153 777,350l0,2C777,549 619,712 416,712C213,712 53,547 53,350l0,-2C53,151 211,-12 414,-12M414,19C227,19 86,167 86,348l0,2C86,531 228,681 416,681C603,681 744,533 744,352l0,-2C744,169 602,19 414,19M419,163C486,163 528,189 567,229l-36,35C498,233 468,214 421,214C347,214 289,278 289,355l0,2C289,433 345,497 420,497C464,497 499,475 528,447l37,40C528,522 488,547 421,547C313,547 233,460 233,356l0,-2C233,249 313,163 419,163z"/>
<glyph unicode="d" horiz-adv-x="664" d="M303,-11C398,-11 459,42 501,104l0,-104l77,0l0,730l-77,0l0,-312C461,476 399,528 303,528C179,528 56,428 56,259l0,-2C56,87 179,-11 303,-11M317,58C220,58 135,136 135,258l0,2C135,385 217,459 317,459C413,459 504,379 504,260l0,-2C504,139 413,58 317,58z"/>
<glyph unicode="$" horiz-adv-x="636" d="M547,618C488,663 431,690 356,698l0,60l-64,0l0,-58C169,694 82,618 82,515l0,-1C82,409 147,355 295,320l0,-251C220,78 161,111 101,165l-45,-60C126,45 203,10 292,2l0,-100l64,0l0,98C481,8 569,81 569,189C569,291 505,349 353,383l0,247C406,622 455,598 504,558M492,184l0,-1C492,118 439,71 353,66l0,241C463,278 492,243 492,184M159,520C159,581 210,629 295,633l0,-236C185,426 159,463 159,520z"/>
<glyph unicode="e" horiz-adv-x="592" d="M312,-12C410,-12 473,27 525,85l-48,43C435,84 385,55 314,55C222,55 143,118 132,230l410,0C543,239 543,245 543,255C543,406 455,528 302,528C159,528 54,408 54,259l0,-2C54,97 170,-12 312,-12M132,287C142,388 210,463 300,463C403,463 457,381 465,287z"/>
<glyph unicode="8" horiz-adv-x="630" d="M315,-10C464,-10 578,70 578,189l0,2C578,274 517,331 434,362C499,392 554,442 554,523l0,2C554,633 443,710 315,710C187,710 76,633 76,525l0,-2C76,442 131,392 196,362C112,332 52,273 52,190l0,-2C52,71 166,-10 315,-10M315,390C226,390 155,442 155,518l0,2C155,590 224,641 315,641C406,641 475,589 475,520l0,-2C475,442 404,390 315,390M315,59C200,59 132,120 132,190l0,2C132,270 213,325 315,325C417,325 498,270 498,192l0,-2C498,119 430,59 315,59z"/>
<glyph unicode="=" horiz-adv-x="625" d="M80,432l465,0l0,74l-465,0M80,198l465,0l0,74l-465,0z"/>
<glyph unicode="!" horiz-adv-x="271" d="M114,198l43,0l24,446l0,56l-90,0l0,-56M90,0l92,0l0,105l-92,0z"/>
<glyph unicode="f" horiz-adv-x="367" d="M115,0l77,0l0,449l163,0l0,66l-164,0l0,42C191,631 221,667 281,667C307,667 328,662 356,654l0,67C331,730 307,734 271,734C224,734 186,720 160,694C131,665 115,620 115,561l0,-45l-71,0l0,-67l71,0z"/>
<glyph unicode="5" horiz-adv-x="612" d="M303,-12C449,-12 553,81 553,218l0,2C553,354 447,434 311,434C253,434 214,421 173,403l15,224l334,0l0,73l-403,0l-20,-341l53,-35C193,346 240,364 299,364C401,364 473,304 473,217l0,-2C473,127 404,60 304,60C233,60 166,97 105,156l-52,-57C116,36 203,-12 303,-12z"/>
<glyph unicode="4" horiz-adv-x="671" d="M432,0l77,0l0,166l108,0l0,66l-108,0l0,473l-70,0l-396,-481l20,-58l369,0M138,232l294,361l0,-361z"/>
<glyph unicode="g" horiz-adv-x="664" d="M315,-162C397,-162 466,-139 512,-93C554,-51 578,10 578,90l0,427l-77,0l0,-93C459,480 396,528 299,528C176,528 56,435 56,284l0,-2C56,133 175,40 299,40C394,40 457,89 502,149l0,-61C502,-33 428,-96 314,-96C240,-96 174,-73 115,-30l-35,-60C149,-138 229,-162 315,-162M314,108C218,108 135,180 135,284l0,2C135,392 216,460 314,460C412,460 504,391 504,285l0,-2C504,179 412,108 314,108z"/>
<glyph unicode="&gt;" horiz-adv-x="625" d="M92,86l469,233l0,66l-469,233l0,-78l385,-189l-385,-188z"/>
<glyph unicode="h" horiz-adv-x="616" d="M86,0l77,0l0,296C163,393 229,458 318,458C409,458 461,398 461,302l0,-302l77,0l0,321C538,444 465,528 340,528C251,528 197,483 163,427l0,303l-77,0z"/>
<glyph unicode="-" horiz-adv-x="408" d="M65,260l278,0l0,81l-278,0z"/>
<glyph unicode="i" horiz-adv-x="263" d="M88,630l88,0l0,85l-88,0M93,0l77,0l0,517l-77,0z"/>
<glyph unicode="j" horiz-adv-x="263" d="M88,630l88,0l0,85l-88,0M44,-163C122,-163 170,-121 170,-30l0,547l-77,0l0,-546C93,-77 69,-98 34,-98C23,-98 8,-97 -4,-95l0,-63C13,-162 26,-163 44,-163z"/>
<glyph unicode="k" horiz-adv-x="569" d="M86,0l77,0l0,135l105,106l185,-241l92,0l-224,295l217,222l-96,0l-279,-291l0,504l-77,0z"/>
<glyph unicode="l" horiz-adv-x="263" d="M93,0l77,0l0,730l-77,0z"/>
<glyph unicode="&lt;" horiz-adv-x="625" d="M534,86l0,78l-386,189l386,188l0,77l-470,-233l0,-66z"/>
<glyph unicode="m" horiz-adv-x="951" d="M86,0l77,0l0,295C163,390 225,458 307,458C389,458 440,401 440,304l0,-304l77,0l0,298C517,400 581,458 659,458C743,458 793,402 793,302l0,-302l77,0l0,320C870,448 797,528 678,528C588,528 533,482 496,425C468,483 414,528 330,528C243,528 197,481 163,430l0,87l-77,0z"/>
<glyph unicode="n" horiz-adv-x="616" d="M86,0l77,0l0,296C163,393 229,458 318,458C409,458 461,398 461,302l0,-302l77,0l0,321C538,444 465,528 340,528C251,528 197,483 163,427l0,90l-77,0z"/>
<glyph unicode="9" horiz-adv-x="647" d="M297,60C235,60 182,85 125,135l-46,-61C138,25 204,-12 295,-12C468,-12 586,145 586,367l0,2C586,509 552,587 499,640C454,685 395,712 315,712C166,712 63,607 63,474l0,-2C63,346 163,255 307,255C397,255 461,298 505,366l0,-14C505,201 432,60 297,60M316,323C214,323 144,387 144,476l0,2C144,565 207,642 312,642C417,642 490,572 490,483l0,-2C490,401 423,323 316,323z"/>
<glyph unicode="#" horiz-adv-x="700" d="M615,246l-118,0l36,212l121,0l0,69l-109,0l30,173l-70,0l-30,-173l-191,0l30,173l-70,0l-30,-173l-130,0l0,-69l118,0l-36,-212l-121,0l0,-69l109,0l-30,-177l70,0l30,177l191,0l-30,-177l70,0l30,177l130,0M273,459l190,0l-36,-214l-191,0z"/>
<glyph unicode="o" horiz-adv-x="646" d="M322,-12C478,-12 593,112 593,258l0,2C593,406 479,528 324,528C168,528 54,404 54,258l0,-2C54,110 167,-12 322,-12M324,57C215,57 133,147 133,258l0,2C133,369 210,460 322,460C431,460 514,369 514,258l0,-2C514,147 436,57 324,57z"/>
<glyph unicode="1" horiz-adv-x="358" d="M179,0l78,0l0,705l-58,0l-171,-59l19,-64l132,41z"/>
<glyph unicode="p" horiz-adv-x="664" d="M86,-160l77,0l0,259C203,41 265,-11 361,-11C486,-11 608,89 608,258l0,2C608,430 485,528 361,528C266,528 205,475 163,413l0,104l-77,0M347,58C251,58 160,138 160,258l0,2C160,378 251,459 347,459C445,459 529,381 529,259l0,-2C529,132 447,58 347,58z"/>
<glyph unicode="(" horiz-adv-x="434" d="M345,-141l33,51C226,7 146,127 146,287C146,447 226,567 378,664l-33,51C167,615 68,471 68,287C68,103 167,-41 345,-141z"/>
<glyph unicode=")" horiz-adv-x="434" d="M89,-141C267,-41 366,103 366,287C366,471 267,615 89,715l-33,-51C208,567 288,447 288,287C288,127 208,7 56,-90z"/>
<glyph unicode="%" horiz-adv-x="834" d="M210,350C305,350 369,434 369,529l0,2C369,625 306,708 212,708C116,708 52,624 52,529l0,-2C52,433 115,350 210,350M210,652C261,652 303,599 303,529l0,-2C303,460 266,406 212,406C160,406 119,459 119,529l0,2C119,597 155,652 210,652M394,365l-270,-365l72,0l243,333l270,367l-71,0M622,-8C718,-8 781,76 781,171l0,2C781,267 719,350 624,350C529,350 465,266 465,171l0,-2C465,75 528,-8 622,-8M624,48C572,48 531,101 531,171l0,2C531,239 568,294 622,294C674,294 715,241 715,171l0,-2C715,102 679,48 624,48z"/>
<glyph unicode="." horiz-adv-x="245" d="M77,0l92,0l0,105l-92,0z"/>
<glyph unicode="+" horiz-adv-x="625" d="M275,110l75,0l0,206l207,0l0,72l-207,0l0,206l-75,0l0,-206l-207,0l0,-72l207,0z"/>
<glyph unicode="q" horiz-adv-x="664" d="M501,-160l77,0l0,677l-77,0l0,-99C461,476 399,528 303,528C179,528 56,428 56,259l0,-2C56,87 179,-11 303,-11C398,-11 459,42 501,104M317,58C220,58 135,136 135,258l0,2C135,385 217,459 317,459C413,459 504,379 504,260l0,-2C504,139 413,58 317,58z"/>
<glyph unicode="?" horiz-adv-x="537" d="M220,198l51,0l10,108C395,322 489,384 489,509l0,2C489,625 400,709 265,709C158,709 87,662 30,593l51,-49C132,603 189,638 263,638C353,638 409,580 409,508l0,-2C409,422 340,368 210,365l-5,-5M199,0l92,0l0,105l-92,0z"/>
<glyph unicode="&quot;" horiz-adv-x="440" d="M260,428l42,0l81,267l0,5l-92,0M65,428l42,0l81,267l0,5l-93,0z"/>
<glyph unicode="&#x201C;" horiz-adv-x="445" d="M272,478l92,0l0,105l-37,0C324,626 344,652 394,670l-12,35C306,688 272,649 272,568M72,478l92,0l0,105l-37,0C124,626 144,652 194,670l-12,35C106,688 72,649 72,568z"/>
<glyph unicode="&#x201D;" horiz-adv-x="445" d="M263,473C339,490 374,529 374,610l0,90l-92,0l0,-105l36,0C322,552 301,526 251,508M63,473C139,490 174,529 174,610l0,90l-92,0l0,-105l36,0C122,552 101,526 51,508z"/>
<glyph unicode="&#x2018;" horiz-adv-x="245" d="M72,478l92,0l0,105l-37,0C124,626 144,652 194,670l-12,35C106,688 72,649 72,568z"/>
<glyph unicode="&#x2019;" horiz-adv-x="245" d="M63,473C139,490 174,529 174,610l0,90l-92,0l0,-105l36,0C122,552 101,526 51,508z"/>
<glyph unicode="'" horiz-adv-x="245" d="M65,428l43,0l81,267l0,5l-94,0z"/>
<glyph unicode="r" horiz-adv-x="405" d="M86,0l77,0l0,206C163,362 255,443 368,443l6,0l0,83C276,530 201,468 163,382l0,135l-77,0z"/>
<glyph unicode="&#xAE;" horiz-adv-x="403" d="M202,360C299,360 376,440 376,535l0,1C376,631 300,710 202,710C105,710 28,630 28,535l0,-1C28,439 104,360 202,360M202,379C114,379 48,449 48,534l0,1C48,620 115,691 202,691C290,691 356,621 356,536l0,-1C356,450 289,379 202,379M134,450l34,0l0,61l37,0l42,-61l41,0l-47,67C265,524 282,542 282,571C282,608 253,627 214,627l-80,0M168,539l0,58l43,0C234,597 247,587 247,568C247,551 234,539 211,539z"/>
<glyph unicode="s" horiz-adv-x="498" d="M257,-10C360,-10 441,47 441,145l0,2C441,240 355,271 275,295C206,316 142,335 142,384l0,2C142,429 181,461 242,461C292,461 347,442 395,411l35,58C377,504 307,526 244,526C142,526 68,467 68,378l0,-2C68,281 158,253 239,230C307,211 368,191 368,139l0,-2C368,87 323,55 261,55C200,55 138,79 82,121l-39,-55C101,19 183,-10 257,-10z"/>
<glyph unicode=";" horiz-adv-x="255" d="M82,412l92,0l0,105l-92,0M63,-122C139,-105 174,-66 174,15l0,90l-92,0l0,-105l36,0C122,-43 101,-69 51,-87z"/>
<glyph unicode="7" horiz-adv-x="596" d="M137,0l88,0l318,641l0,59l-475,0l0,-72l385,0z"/>
<glyph unicode="6" horiz-adv-x="647" d="M333,-12C475,-12 584,86 584,221l0,2C584,354 472,438 342,438C251,438 188,397 142,330l0,10C142,498 213,640 348,640C412,640 461,615 513,571l46,61C498,682 436,712 352,712C169,712 61,545 61,332l0,-2C61,187 93,115 149,59C193,15 256,-12 333,-12M334,58C231,58 157,126 157,215l0,2C157,295 227,370 332,370C433,370 503,306 503,220l0,-2C503,129 437,58 334,58z"/>
<glyph unicode="/" horiz-adv-x="508" d="M-21,-128l71,0l464,926l-71,0z"/>
<glyph unicode=" " horiz-adv-x="300"/>
<glyph unicode="&#xA3;" horiz-adv-x="644" d="M67,0l518,0l0,70l-355,0l0,225l279,0l0,69l-279,0l0,108C230,527 245,571 273,600C298,624 330,637 371,637C444,637 486,603 525,554l61,48C539,663 478,710 372,710C306,710 252,688 214,650C173,609 151,546 151,472l0,-108l-84,0l0,-69l84,0l0,-228l-84,-21z"/>
<glyph unicode="t" horiz-adv-x="404" d="M259,-9C296,-9 325,-1 352,13l0,66C325,66 303,61 277,61C225,61 190,84 190,147l0,302l164,0l0,68l-164,0l0,156l-77,0l0,-156l-72,0l0,-68l72,0l0,-312C113,32 176,-9 259,-9z"/>
<glyph unicode="3" horiz-adv-x="613" d="M311,-12C441,-12 545,74 545,199l0,2C545,329 436,388 314,398l220,244l0,58l-447,0l0,-71l342,0l-221,-249l16,-47l45,0C384,333 465,285 465,198l0,-2C465,114 397,60 312,60C226,60 161,98 108,164l-58,-51C107,39 194,-12 311,-12z"/>
<glyph unicode="&#x2122;" horiz-adv-x="690" d="M336,392l44,0l0,236l109,-167l6,0l110,167l0,-236l43,0l0,308l-46,0l-109,-169l-110,169l-47,0M125,392l44,0l0,266l99,0l0,42l-242,0l0,-42l99,0z"/>
<glyph unicode="2" horiz-adv-x="599" d="M48,0l489,0l0,72l-371,0l187,166C476,345 530,408 530,510l0,2C530,626 439,710 313,710C190,710 124,655 61,561l58,-42C175,597 227,639 307,639C383,639 448,587 448,505C448,435 409,381 302,285l-254,-224z"/>
<glyph unicode="u" horiz-adv-x="616" d="M276,-11C365,-11 418,34 453,90l0,-90l76,0l0,517l-76,0l0,-296C453,124 386,59 298,59C207,59 155,119 155,215l0,302l-77,0l0,-321C78,73 151,-11 276,-11z"/>
<glyph unicode="_" horiz-adv-x="600" d="M-2,-160l604,0l0,63l-604,0z"/>
<glyph unicode="&#xA0;" horiz-adv-x="300"/>
<glyph unicode="v" horiz-adv-x="587" d="M259,-4l68,0l225,521l-83,0l-175,-429l-174,429l-85,0z"/>
<glyph unicode="w" horiz-adv-x="861" d="M223,-4l68,0l140,408l139,-408l67,0l182,521l-80,0l-136,-415l-140,417l-64,0l-139,-417l-136,415l-82,0z"/>
<glyph unicode="x" horiz-adv-x="574" d="M135,517l-88,0l194,-254l-202,-263l86,0l161,213l160,-213l89,0l-204,264l196,253l-86,0l-154,-202z"/>
<glyph unicode="y" horiz-adv-x="591" d="M307,86l-188,431l-85,0l235,-515C238,-71 209,-95 163,-95C130,-95 107,-89 82,-76l-26,-61C91,-154 123,-163 166,-163C244,-163 294,-124 338,-17l217,534l-82,0z"/>
<glyph unicode="z" horiz-adv-x="556" d="M56,0l448,0l0,65l-344,0l344,403l0,49l-436,0l0,-65l331,0l-343,-403z"/>
<glyph unicode="0" horiz-adv-x="715" d="M357,-12C537,-12 653,154 653,350l0,2C653,548 539,712 359,712C179,712 62,546 62,350l0,-2C62,152 176,-12 357,-12M359,60C228,60 144,197 144,350l0,2C144,506 226,640 357,640C487,640 571,503 571,350l0,-2C571,195 490,60 359,60z"/>
</font>
</svg>
